<?xml version='1.0' encoding='utf-8'?>
<svg xmlns="http://www.w3.org/2000/svg" width="24" height="24" viewBox="0 0 24 24" fill="none" stroke="currentColor" stroke-width="2" stroke-linecap="round" stroke-linejoin="round" class="icon icon-tabler icons-tabler-outline icon-tabler-home-star"><g filter="url(#white-outline)"><defs><filter id="white-outline" color-interpolation-filters="sRGB"><feMorphology in="SourceAlpha" result="DILATED" operator="dilate" radius="0.3" /><feFlood flood-color="white" flood-opacity="1" result="WHITE" /><feComposite in="WHITE" in2="DILATED" operator="in" result="OUTLINE" /><feMerge><feMergeNode in="OUTLINE" /><feMergeNode in="SourceGraphic" /></feMerge></filter></defs><path stroke="none" d="M0 0h24v24H0z" fill="none" /><path d="M19.258 10.258l-7.258 -7.258l-9 9h2v7a2 2 0 0 0 2 2h4" /><path d="M9 21v-6a2 2 0 0 1 2 -2h1.5" /><path d="M17.8 20.817l-2.172 1.138a.392 .392 0 0 1 -.568 -.41l.415 -2.411l-1.757 -1.707a.389 .389 0 0 1 .217 -.665l2.428 -.352l1.086 -2.193a.392 .392 0 0 1 .702 0l1.086 2.193l2.428 .352a.39 .39 0 0 1 .217 .665l-1.757 1.707l.414 2.41a.39 .39 0 0 1 -.567 .411l-2.172 -1.138z" /></g></svg>