<?xml version='1.0' encoding='utf-8'?>
<svg xmlns="http://www.w3.org/2000/svg" width="24" height="24" viewBox="0 0 24 24" fill="none" stroke="currentColor" stroke-width="2" stroke-linecap="round" stroke-linejoin="round" class="icon icon-tabler icons-tabler-outline icon-tabler-mail-spark"><g filter="url(#white-outline)"><defs><filter id="white-outline" color-interpolation-filters="sRGB"><feMorphology in="SourceAlpha" result="DILATED" operator="dilate" radius="0.3" /><feFlood flood-color="white" flood-opacity="1" result="WHITE" /><feComposite in="WHITE" in2="DILATED" operator="in" result="OUTLINE" /><feMerge><feMergeNode in="OUTLINE" /><feMergeNode in="SourceGraphic" /></feMerge></filter></defs><path stroke="none" d="M0 0h24v24H0z" fill="none" /><path d="M19 22.5a4.75 4.75 0 0 1 3.5 -3.5a4.75 4.75 0 0 1 -3.5 -3.5a4.75 4.75 0 0 1 -3.5 3.5a4.75 4.75 0 0 1 3.5 3.5" /><path d="M11.5 19h-6.5a2 2 0 0 1 -2 -2v-10a2 2 0 0 1 2 -2h14a2 2 0 0 1 2 2v5" /><path d="M3 7l9 6l9 -6" /></g></svg>