<?xml version="1.0" encoding="UTF-8" standalone="no"?>
<svg
   width="503.70279pt"
   height="473.35999pt"
   viewBox="0 0 503.70279 473.35999"
   version="1.1"
   id="svg37"
   sodipodi:docname="Nyarch.svg"
   inkscape:version="1.1.1 (3bf5ae0d25, 2021-09-20, custom)"
   xmlns:inkscape="http://www.inkscape.org/namespaces/inkscape"
   xmlns:sodipodi="http://sodipodi.sourceforge.net/DTD/sodipodi-0.dtd"
   xmlns="http://www.w3.org/2000/svg"
   xmlns:svg="http://www.w3.org/2000/svg">
  <defs
     id="defs41" />
  <sodipodi:namedview
     id="namedview39"
     pagecolor="#ffffff"
     bordercolor="#666666"
     borderopacity="1.0"
     inkscape:pageshadow="2"
     inkscape:pageopacity="0.0"
     inkscape:pagecheckerboard="0"
     inkscape:document-units="pt"
     showgrid="false"
     fit-margin-top="0"
     fit-margin-left="0"
     fit-margin-right="0"
     fit-margin-bottom="0"
     inkscape:zoom="0.93888889"
     inkscape:cx="-33.017751"
     inkscape:cy="309.94083"
     inkscape:window-width="1908"
     inkscape:window-height="2118"
     inkscape:window-x="0"
     inkscape:window-y="0"
     inkscape:window-maximized="1"
     inkscape:current-layer="svg37" />
  <g
     id="#71c7f2ff"
     transform="translate(-236.95,-37.56)">
    <path
       fill="#71c7f2"
       opacity="1"
       d="m 476.5,41.41 c 0.54,-1.31 1.16,-2.6 1.84,-3.85 10.01,23.37 19.78,46.84 29.92,70.15 0.63,-1.47 -0.07,-4.94 2.29,-4.52 0.5,1.57 0.72,3.22 0.95,4.85 1.5,-3.21 3.29,-6.29 5.42,-9.13 0.18,4.58 -1.46,8.96 -3.44,13.02 1.91,-0.09 3.88,-0.21 5.69,0.55 -2.23,1.54 -4.68,2.71 -7.21,3.64 9.71,22.3 20,44.34 30.57,66.25 1.33,3.43 5.02,5.1 8.32,6.07 10.12,-4.68 20.1,-10.27 31.2,-12.37 15.52,-3.03 31.47,0.18 47.04,-2.3 0.2,-1.6 0.48,-3.22 1.53,-4.51 0.5,0.66 1.51,1.96 2.01,2.61 1.26,-2.04 2.11,-4.57 4.4,-5.71 2.07,1.1 0.94,3.99 1.24,5.88 3.37,-1.41 6.49,-3.42 10.04,-4.41 0.57,5.96 -5.16,9.28 -9.09,12.59 -3.13,2.35 -3.39,6.51 -4.86,9.84 -2.95,6.78 -5.33,13.8 -9.11,20.18 -1.71,5.92 -5.16,11.11 -9.11,15.77 1.99,-0.36 3.99,-0.67 6.01,-0.95 -0.83,0.53 -1.64,1.05 -2.45,1.58 -1.28,2.71 -3.02,5.17 -5.05,7.37 2.49,-0.78 5.09,-1.35 7.73,-0.99 -2.2,2.45 -5.86,2.77 -7.82,5.49 -5.41,5.04 -11.27,9.7 -17.63,13.48 -2.78,1.83 -6.42,1.79 -9.04,3.83 -3.96,5.74 -1.98,13.35 1.33,18.93 10.22,19.9 20.98,39.54 31.07,59.5 2.28,5.07 4.88,10.02 7.86,14.72 6.46,11.23 12.19,22.86 18.47,34.19 1,2.05 3.42,2.53 5.34,3.36 1.82,0.97 3.58,2.05 5.31,3.19 -2.41,0.03 -4.8,-0.02 -7.19,-0.13 0.66,1.76 1.33,3.53 1.99,5.3 -1.72,-0.79 -3.45,-1.58 -5.16,-2.37 -0.05,2.26 -0.11,4.53 -0.2,6.79 -3.02,-3.08 -4.55,-7.2 -7.19,-10.55 -15.83,-7.56 -32.6,-12.77 -49.43,-17.55 11.55,6.34 23.13,12.69 34.06,20.08 -12.03,1.85 -24.12,3.24 -36.13,5.22 -2.85,-14.16 -6.95,-28.02 -11.63,-41.66 1.25,-1.74 3.03,-2.97 4.66,-4.33 -0.76,-0.13 -2.29,-0.39 -3.05,-0.52 1.05,-2.71 1.87,-5.51 2.44,-8.37 -1.42,1.41 -2.81,2.86 -4.19,4.33 0.05,-3.83 0.03,-7.67 -0.23,-11.49 -2.14,2.34 -3.77,5.07 -5.09,7.94 -4.25,-7.28 -9,-14.24 -14.22,-20.85 2.26,-2.46 4.54,-4.92 7.01,-7.19 1.51,2.26 2.39,7.32 6.14,5.86 2.57,-2.12 4.63,-4.76 6.98,-7.11 1.77,2.23 3.29,4.77 5.59,6.53 1.76,0.75 3.01,-1.02 4.29,-1.92 2.73,-2.6 6.05,-4.51 8.71,-7.19 1.8,-1.71 0.06,-4.9 -2.31,-4.52 -3.46,1.83 -6.33,4.54 -9.5,6.8 -2.05,-2.46 -3.64,-5.62 -6.62,-7.04 -3.38,0.86 -4.92,4.75 -7.4,7 -1.52,-1.81 -2.59,-5.38 -5.57,-4.71 -3.77,1.26 -6.35,4.56 -9.31,7.05 -0.73,-1.85 -0.94,-4 -2.26,-5.53 -1.99,-1.24 -3.77,0.8 -5.25,1.87 -11.31,-10.39 -25.11,-18.21 -40.08,-21.8 -0.21,-0.41 -0.62,-1.22 -0.83,-1.63 -2.06,-4.7 -5.98,-9.07 -11.3,-9.76 -3.65,-0.68 -7.08,3.17 -5.87,6.71 0.85,3.01 4.52,3.39 6.54,5.35 0.93,4.04 -3.45,5.86 -6.74,5.94 -0.48,-2.27 -0.74,-4.61 -1.58,-6.78 -1.83,-3.46 -7.9,-3.21 -8.99,0.71 -1.11,2.36 -1.14,5.52 -3.41,7.14 -2.47,0.06 -4.92,-1.58 -4.22,-4.31 -0.61,-4.28 5.22,-3.8 6.39,-7.13 1.33,-3.01 -0.86,-6.77 -4.09,-7.17 -4.82,-0.14 -9.08,3.05 -11.44,7.07 -9.2,1.3 -17.72,5.32 -25.62,10.05 -6.58,3.93 -13.51,7.61 -18.84,13.24 -1.81,1.88 -3.61,3.76 -5.32,5.73 -1.42,-2.23 -1.78,-6.33 -4.86,-6.72 -4.93,2.31 -9.21,5.85 -13.75,8.84 -1.25,-2.44 -2.21,-5.08 -3.89,-7.28 -2.13,-1.26 -4.09,0.87 -5.74,1.96 -3.15,2.59 -6.66,4.66 -9.88,7.14 -2.24,1.4 -0.11,5.4 2.31,4.43 4,-1.38 7.09,-4.43 10.43,-6.89 1.87,2.63 2.45,6.64 5.55,8.1 4.93,-2.46 8.76,-6.76 13.8,-9.16 0.58,1.05 1.16,2.1 1.76,3.15 -3.55,5.1 -7.73,9.72 -11.34,14.78 -3.57,4.95 -6.08,10.54 -8.87,15.94 -1.4,-2.84 -2.68,-5.74 -4.01,-8.61 -1.41,2.5 -1.29,5.41 -1.31,8.19 -1.09,-0.25 -2.17,-0.49 -3.24,-0.73 0.4,2.01 0.8,4.03 1.2,6.05 -0.8,0.16 -2.42,0.47 -3.22,0.63 1.42,2.38 3.46,4.27 5.24,6.37 -0.4,2.99 -1.53,5.82 -2.44,8.69 -2.9,8.35 -4.82,17.01 -6.56,25.67 0.55,-0.06 1.64,-0.16 2.19,-0.21 -20.24,6.15 -40.72,11.56 -61.54,15.34 -6.47,1.19 -12.91,2.49 -19.38,3.67 8.8,-15.83 17.21,-31.89 26.25,-47.58 1.39,-2.04 2.69,-4.14 3.75,-6.37 2.76,-5.94 6.38,-11.44 9,-17.45 13.66,-25.54 27.34,-51.08 40.71,-76.78 1.24,-2.98 1.32,-6.3 1.84,-9.46 0.83,-4.48 -3.98,-7.22 -7.54,-8.55 -3.93,2.6 -8.39,4.64 -13.17,4.84 1.38,-1.63 3.41,-2.41 5.08,-3.68 1.28,-1.3 1.94,-3.04 2.83,-4.6 -7.27,-1.12 -12.75,-7.93 -13.39,-15.09 2.09,0.84 4.19,1.64 6.32,2.38 -4.93,-7.19 -7.18,-16.02 -5.88,-24.69 1.55,1.64 3.23,3.15 4.95,4.62 -2.78,-6.35 -5.5,-12.84 -6.11,-19.82 -0.86,-8.47 -4.26,-16.33 -6.55,-24.45 -1.71,-4.01 -4.73,-7.24 -6.91,-10.97 -0.52,-1.16 0.82,-2.05 1.26,-2.98 6.91,1.26 13.28,4.46 19.47,7.67 -1.36,-2.21 -2.95,-4.54 -2.21,-7.27 2.14,1.41 4.05,3.12 5.75,5.05 -0.32,-1.64 -0.42,-3.28 -0.3,-4.94 3.59,1.9 4.92,6 6.03,9.62 7.46,-0.19 14.84,1.43 22.08,3.05 8.27,2.63 17.2,4.17 24.28,9.52 4.46,3.48 9.09,6.81 12.89,11.05 3.58,3.81 6.72,8.24 11.38,10.84 13.96,8.57 28.6,16.22 43.98,21.9 -20.99,-14.77 -40.33,-31.84 -57.72,-50.71 19.85,-41.85 36.78,-84.99 54.17,-127.9 M 346.56,162.88 c 1.69,1.8 3.94,3.47 4.32,6.09 0.86,4.31 1.29,8.7 2.08,13.03 1.23,7.26 -0.32,14.89 2.33,21.93 3.42,8.86 9.47,16.28 14.71,24.09 2.14,2.6 5.22,4.17 8.26,5.49 0.09,-3.54 -0.29,-7.31 1.62,-10.48 2.51,-4.41 4.68,-9.12 8.11,-12.92 0.22,2.25 0.39,4.51 0.55,6.77 4.16,-4.36 5.12,-10.71 5.33,-16.5 5.37,1.42 9.72,5.1 14.98,6.8 -1.25,-2.93 -2.3,-6.14 -4.74,-8.33 -2.13,-1.98 -4.41,-3.8 -6.31,-6.01 5.39,1.14 9.07,5.61 14.13,7.32 -4.24,-6.28 -8.52,-12.85 -14.77,-17.33 -7.34,-5.66 -16.46,-8.11 -25.13,-10.94 -8.77,-2.22 -16.77,-6.58 -25.47,-9.01 m 254.65,18.44 c -5.86,1.9 -9.67,7.01 -14.65,10.31 -3.27,2.28 -6.77,4.25 -9.82,6.84 4.22,0.52 8.47,0.52 12.72,0.55 -2.09,1.89 -4.5,3.4 -7.15,4.38 1.65,1.39 3.12,3 4.07,4.97 -4.52,-1.12 -8.65,-3.99 -13.5,-3.28 2.96,3.43 6.64,6.38 8.42,10.68 3.37,7.42 8.58,14.99 6.81,23.55 6.7,-0.09 12.98,-2.99 18.13,-7.11 7.27,-6.25 9.64,-15.92 13.87,-24.15 3.79,-6.82 6.37,-14.29 7.77,-21.96 0.86,-3.75 -2.25,-7.24 -5.83,-7.8 -7.08,-1.02 -14.13,0.95 -20.84,3.02 m -203.09,65.9 c -3.66,1.19 -4.65,6.74 -1.4,8.93 9.13,6.5 19.14,11.61 28.65,17.49 0.82,0.26 2.28,1.86 0.64,2.2 -6.23,2.89 -11.86,6.83 -17.63,10.51 -4.08,2.63 -8.71,4.41 -12.54,7.42 -3.72,3.85 1.33,10.68 6.09,8.19 6.29,-3.22 12.41,-6.78 18.26,-10.74 5.66,-3.92 12.1,-6.48 17.76,-10.39 2.36,-1.38 2.75,-4.44 2.83,-6.92 -0.03,-2.61 -2.55,-3.93 -4.37,-5.29 -9.92,-7.36 -21.23,-12.52 -31.38,-19.51 -2,-1.32 -4.42,-3 -6.91,-1.89 m 168.29,0.38 c -4.26,1.79 -8.08,4.45 -12,6.86 -8.24,6.57 -18.25,10.28 -27.13,15.84 -2.87,2.13 -2.16,6.93 0.91,8.54 8.44,5.56 16.81,11.23 25.39,16.57 4.37,2.58 8.59,5.63 13.52,7.07 3.58,0.89 7.1,-2.97 6.03,-6.46 -0.75,-3.24 -4.44,-3.86 -6.9,-5.33 -8.68,-4.93 -17,-10.47 -25.28,-16.04 5.12,-2.82 10.47,-5.26 15.34,-8.5 3.76,-2.94 7.79,-5.53 12.01,-7.77 1.88,-1.13 4.38,-2.01 4.92,-4.42 1.35,-3.88 -3.03,-8.03 -6.81,-6.36 z"
       id="path2" />
    <path
       fill="#71c7f2"
       opacity="1"
       d="m 589.87,411.93 c 17.29,-2.95 34.78,-4.62 52.01,-7.89 8.66,6.63 17.04,13.6 25.58,20.38 1.31,1.03 2.59,2.18 3.35,3.71 10.11,18.83 20.37,37.58 30.48,56.41 0.59,1 1.11,2.17 2.22,2.74 3.93,2.37 8,4.53 11.57,7.44 -3.12,-0.33 -6.19,-0.96 -9.22,-1.73 0.99,1.82 1.97,3.65 2.92,5.5 -0.81,-0.45 -2.45,-1.35 -3.26,-1.8 0.1,1.19 0.32,3.56 0.42,4.75 -3.36,-2.87 -4.61,-7.75 -8.79,-9.63 -34.74,-19.54 -70.1,-38.27 -107.31,-52.69 0.21,-9.06 0.25,-18.13 0.03,-27.19 z"
       id="path4" />
    <path
       fill="#71c7f2"
       opacity="1"
       d="m 312.37,426.5 c 19.52,-3.47 38.77,-8.24 57.82,-13.68 -0.32,8.47 -1.28,16.91 -1.18,25.4 -36.46,13.79 -71.05,32.01 -105.04,50.96 -2.49,0.98 -2.86,3.84 -3.84,6.01 -2.03,5.47 -4.82,10.61 -7.6,15.73 0.35,-5.84 1.5,-11.59 3.39,-17.11 -2.77,1.52 -5.51,3.1 -8.27,4.64 1.17,-2.18 2.35,-4.34 3.54,-6.5 -4.5,1.85 -9.32,3.27 -14.24,2.55 5.15,-3.55 11.54,-4.79 16.94,-7.61 10.38,-18.21 20.37,-36.66 30.55,-55 9.29,-1.89 18.62,-3.6 27.93,-5.39 z"
       id="path6" />
  </g>
  <g
     id="#2298d3ff"
     transform="translate(-236.95,-37.56)">
    <path
       fill="#2298d3"
       opacity="1"
       d="m 346.56,162.88 c 8.7,2.43 16.7,6.79 25.47,9.01 8.67,2.83 17.79,5.28 25.13,10.94 6.25,4.48 10.53,11.05 14.77,17.33 -5.06,-1.71 -8.74,-6.18 -14.13,-7.32 1.9,2.21 4.18,4.03 6.31,6.01 2.44,2.19 3.49,5.4 4.74,8.33 -5.26,-1.7 -9.61,-5.38 -14.98,-6.8 -0.21,5.79 -1.17,12.14 -5.33,16.5 -0.16,-2.26 -0.33,-4.52 -0.55,-6.77 -3.43,3.8 -5.6,8.51 -8.11,12.92 -1.91,3.17 -1.53,6.94 -1.62,10.48 -3.04,-1.32 -6.12,-2.89 -8.26,-5.49 -5.24,-7.81 -11.29,-15.23 -14.71,-24.09 -2.65,-7.04 -1.1,-14.67 -2.33,-21.93 -0.79,-4.33 -1.22,-8.72 -2.08,-13.03 -0.38,-2.62 -2.63,-4.29 -4.32,-6.09 z"
       id="path9" />
    <path
       fill="#2298d3"
       opacity="1"
       d="m 601.21,181.32 c 6.71,-2.07 13.76,-4.04 20.84,-3.02 3.58,0.56 6.69,4.05 5.83,7.8 -1.4,7.67 -3.98,15.14 -7.77,21.96 -4.23,8.23 -6.6,17.9 -13.87,24.15 -5.15,4.12 -11.43,7.02 -18.13,7.11 1.77,-8.56 -3.44,-16.13 -6.81,-23.55 -1.78,-4.3 -5.46,-7.25 -8.42,-10.68 4.85,-0.71 8.98,2.16 13.5,3.28 -0.95,-1.97 -2.42,-3.58 -4.07,-4.97 2.65,-0.98 5.06,-2.49 7.15,-4.38 -4.25,-0.03 -8.5,-0.03 -12.72,-0.55 3.05,-2.59 6.55,-4.56 9.82,-6.84 4.98,-3.3 8.79,-8.41 14.65,-10.31 z"
       id="path11" />
    <path
       fill="#2298d3"
       opacity="1"
       d="m 620.29,334.25 c 16.81,-2.02 33.73,-3.51 50.67,-3.2 20.99,-0.67 42.19,3.73 61.04,13.04 4.28,2.11 8.65,5.73 8.54,10.97 1.01,7.73 -4.94,13.73 -10.77,17.74 -8.23,5.43 -17.09,9.82 -25.88,14.26 -15.05,7.54 -31.71,10.76 -48.02,14.35 -4.63,1.08 -9.32,1.81 -13.99,2.63 -17.23,3.27 -34.72,4.94 -52.01,7.89 -17.54,2.96 -35.1,6.06 -52.21,11.02 -19.64,5.5 -39.03,12.62 -56.52,23.25 -14.4,8.61 -25.73,21.81 -32.99,36.86 -1.58,3.83 -6.39,5.81 -10.18,4.07 -3.84,-1.53 -5.86,-6.44 -4.04,-10.18 8.17,-17.28 20.95,-32.53 37.19,-42.72 17.86,-11.36 37.86,-18.94 58.06,-24.98 19.25,-5.8 39.06,-9.36 58.84,-12.75 12.01,-1.98 24.1,-3.37 36.13,-5.22 5.13,-0.75 10.25,-1.63 15.37,-2.53 2.64,3.35 4.17,7.47 7.19,10.55 0.09,-2.26 0.15,-4.53 0.2,-6.79 1.71,0.79 3.44,1.58 5.16,2.37 -0.66,-1.77 -1.33,-3.54 -1.99,-5.3 2.39,0.11 4.78,0.16 7.19,0.13 -1.73,-1.14 -3.49,-2.22 -5.31,-3.19 10.77,-2.58 21.68,-4.64 32.22,-8.08 8.89,-2.88 17.15,-7.35 25.38,-11.71 5.07,-2.76 10.26,-5.44 14.65,-9.25 -13.2,-6.34 -27.65,-9.87 -42.23,-10.86 -17.97,-0.46 -35.98,0.08 -53.83,2.35 -2.98,-4.7 -5.58,-9.65 -7.86,-14.72 z"
       id="path13" />
    <path
       fill="#2298d3"
       opacity="1"
       d="m 313.39,352.52 c 6.74,-3.01 13.24,-6.51 19.87,-9.76 -2.62,6.01 -6.24,11.51 -9,17.45 -1.06,2.23 -2.36,4.33 -3.75,6.37 -15.1,6.19 -30.75,11.93 -43.7,22.17 -6.03,4.91 -12.48,9.61 -17.05,16 -2.03,2.6 -1.56,6.04 -1.58,9.11 11.44,5.29 24.31,3.06 36.08,0.3 6.47,-1.18 12.91,-2.48 19.38,-3.67 20.82,-3.78 41.3,-9.19 61.54,-15.34 18.42,-5.32 36.9,-10.47 55.16,-16.33 8.67,-2.82 17.33,-5.71 26.09,-8.25 21.17,-6.5 42.94,-10.78 64.24,-16.81 0.13,1.11 0.27,2.22 0.41,3.35 0.75,-0.8 1.52,-1.58 2.28,-2.36 1.33,4.52 2.41,9.12 2.85,13.82 -23.8,6.1 -47.84,11.31 -71.31,18.61 -8.17,2.49 -16.25,5.29 -24.41,7.83 -19.98,6.33 -40.24,11.72 -60.3,17.81 -19.05,5.44 -38.3,10.21 -57.82,13.68 -9.31,1.79 -18.64,3.5 -27.93,5.39 -11.07,1.43 -22.91,0.9 -33.01,-4.3 -4.49,-2.66 -8.73,-7.09 -8.73,-12.64 -0.17,-5.05 -0.22,-10.39 2.06,-15.03 2.92,-6.08 7.82,-10.89 12.77,-15.33 6.83,-5.97 13.99,-11.62 21.82,-16.23 10.72,-6.55 22.69,-10.57 34.04,-15.84 z"
       id="path15" />
  </g>
  <g
     id="#18526fff"
     transform="translate(-236.95,-37.56)">
    <path
       fill="#18526f"
       opacity="1"
       d="m 398.12,247.22 c 2.49,-1.11 4.91,0.57 6.91,1.89 10.15,6.99 21.46,12.15 31.38,19.51 1.82,1.36 4.34,2.68 4.37,5.29 -0.08,2.48 -0.47,5.54 -2.83,6.92 -5.66,3.91 -12.1,6.47 -17.76,10.39 -5.85,3.96 -11.97,7.52 -18.26,10.74 -4.76,2.49 -9.81,-4.34 -6.09,-8.19 3.83,-3.01 8.46,-4.79 12.54,-7.42 5.77,-3.68 11.4,-7.62 17.63,-10.51 1.64,-0.34 0.18,-1.94 -0.64,-2.2 -9.51,-5.88 -19.52,-10.99 -28.65,-17.49 -3.25,-2.19 -2.26,-7.74 1.4,-8.93 z"
       id="path18" />
    <path
       fill="#18526f"
       opacity="1"
       d="m 566.41,247.6 c 3.78,-1.67 8.16,2.48 6.81,6.36 -0.54,2.41 -3.04,3.29 -4.92,4.42 -4.22,2.24 -8.25,4.83 -12.01,7.77 -4.87,3.24 -10.22,5.68 -15.34,8.5 8.28,5.57 16.6,11.11 25.28,16.04 2.46,1.47 6.15,2.09 6.9,5.33 1.07,3.49 -2.45,7.35 -6.03,6.46 -4.93,-1.44 -9.15,-4.49 -13.52,-7.07 -8.58,-5.34 -16.95,-11.01 -25.39,-16.57 -3.07,-1.61 -3.78,-6.41 -0.91,-8.54 8.88,-5.56 18.89,-9.27 27.13,-15.84 3.92,-2.41 7.74,-5.07 12,-6.86 z"
       id="path20" />
    <path
       fill="#18526f"
       opacity="1"
       d="m 489.13,284.97 c -1.21,-3.54 2.22,-7.39 5.87,-6.71 5.32,0.69 9.24,5.06 11.3,9.76 0.59,6.06 -1.65,12.9 -7.21,16.01 -4.68,3.32 -10.89,2.82 -15.95,0.72 -2.86,1.45 -5.82,3.25 -9.15,3.03 -4.69,-0.36 -9.58,-2.52 -11.98,-6.76 -2.62,-4.62 -2.02,-10.36 -0.42,-15.23 2.36,-4.02 6.62,-7.21 11.44,-7.07 3.23,0.4 5.42,4.16 4.09,7.17 -1.17,3.33 -7,2.85 -6.39,7.13 -0.7,2.73 1.75,4.37 4.22,4.31 2.27,-1.62 2.3,-4.78 3.41,-7.14 1.09,-3.92 7.16,-4.17 8.99,-0.71 0.84,2.17 1.1,4.51 1.58,6.78 3.29,-0.08 7.67,-1.9 6.74,-5.94 -2.02,-1.96 -5.69,-2.34 -6.54,-5.35 z"
       id="path22" />
  </g>
  <g
     id="#b4e6ffff"
     transform="translate(-236.95,-37.56)">
    <path
       fill="#b4e6ff"
       opacity="1"
       d="m 435.97,295.84 c 7.9,-4.73 16.42,-8.75 25.62,-10.05 -1.6,4.87 -2.2,10.61 0.42,15.23 2.4,4.24 7.29,6.4 11.98,6.76 3.33,0.22 6.29,-1.58 9.15,-3.03 5.06,2.1 11.27,2.6 15.95,-0.72 5.56,-3.11 7.8,-9.95 7.21,-16.01 0.21,0.41 0.62,1.22 0.83,1.63 14.97,3.59 28.77,11.41 40.08,21.8 -2.59,2.31 -5.47,4.35 -7.7,7.02 -1.23,1.76 0.56,4.07 2.53,4 2.8,-1.32 5.07,-3.48 7.46,-5.41 1.39,2.76 3.49,7.09 7.21,4.49 5.22,6.61 9.97,13.57 14.22,20.85 1.32,-2.87 2.95,-5.6 5.09,-7.94 0.26,3.82 0.28,7.66 0.23,11.49 1.38,-1.47 2.77,-2.92 4.19,-4.33 -0.57,2.86 -1.39,5.66 -2.44,8.37 0.76,0.13 2.29,0.39 3.05,0.52 -1.63,1.36 -3.41,2.59 -4.66,4.33 4.68,13.64 8.78,27.5 11.63,41.66 -19.78,3.39 -39.59,6.95 -58.84,12.75 1.73,-13.65 -0.14,-27.33 -2.97,-40.68 -0.44,-4.7 -1.52,-9.3 -2.85,-13.82 -0.76,0.78 -1.53,1.56 -2.28,2.36 -0.14,-1.13 -0.28,-2.24 -0.41,-3.35 -1.42,-9.83 -5.48,-19.23 -11.26,-27.28 -3.59,-5.89 -8.72,-10.74 -14.41,-14.59 -3.17,-2.33 -7.24,-2.38 -10.98,-2.88 -9.98,-1.31 -21.11,1.28 -28.07,8.95 -4.49,3.96 -8.09,8.76 -11.11,13.91 1.15,1.14 2.3,2.31 3.42,3.5 -0.58,0.19 -1.74,0.58 -2.32,0.77 2.48,2.51 4.62,5.34 6.08,8.57 -2.56,-1.93 -5.18,-3.77 -7.7,-5.74 0.11,2.54 0.05,5.08 -0.25,7.62 -0.9,-0.83 -1.77,-1.65 -2.64,-2.47 -0.45,2.84 -0.77,5.69 -1.05,8.55 -1.46,-2.09 -1.98,-4.64 -2.72,-7.03 -2.53,11.04 -5.96,21.89 -7.32,33.18 -18.26,5.86 -36.74,11.01 -55.16,16.33 -0.55,0.05 -1.64,0.15 -2.19,0.21 1.74,-8.66 3.66,-17.32 6.56,-25.67 0.91,-2.87 2.04,-5.7 2.44,-8.69 -1.78,-2.1 -3.82,-3.99 -5.24,-6.37 0.8,-0.16 2.42,-0.47 3.22,-0.63 -0.4,-2.02 -0.8,-4.04 -1.2,-6.05 1.07,0.24 2.15,0.48 3.24,0.73 0.02,-2.78 -0.1,-5.69 1.31,-8.19 1.33,2.87 2.61,5.77 4.01,8.61 2.79,-5.4 5.3,-10.99 8.87,-15.94 3.61,-5.06 7.79,-9.68 11.34,-14.78 1.03,1.6 2,3.42 3.74,4.37 2.21,0.07 3.63,-1.96 5.28,-3.12 3.39,-3.11 7.61,-5.07 11.24,-7.85 2.73,-1.53 0.65,-7.22 -2.49,-5.37 -4.37,3.14 -8.7,6.34 -13.13,9.4 -0.09,-0.25 -0.28,-0.75 -0.37,-1 1.71,-1.97 3.51,-3.85 5.32,-5.73 5.33,-5.63 12.26,-9.31 18.84,-13.24 z"
       id="path25" />
    <path
       fill="#b4e6ff"
       opacity="1"
       d="m 370.19,412.82 c 20.06,-6.09 40.32,-11.48 60.3,-17.81 -0.15,8.33 1.82,16.55 1.25,24.88 -7.01,2.66 -14.54,3.5 -21.73,5.58 -9.3,2.96 -18.96,4.68 -28.07,8.26 -4.36,1.37 -8.65,2.92 -12.93,4.49 -0.1,-8.49 0.86,-16.93 1.18,-25.4 z"
       id="path27" />
    <path
       fill="#b4e6ff"
       opacity="1"
       d="m 537.66,422.95 c 17.11,-4.96 34.67,-8.06 52.21,-11.02 0.22,9.06 0.18,18.13 -0.03,27.19 -17.23,-5.89 -34.37,-12.19 -52.18,-16.17 z"
       id="path29" />
  </g>
  <g
     id="#fcaecbff"
     transform="translate(-236.95,-37.56)">
    <path
       fill="#fcaecb"
       opacity="1"
       d="m 425.31,306.41 c 3.14,-1.85 5.22,3.84 2.49,5.37 -3.63,2.78 -7.85,4.74 -11.24,7.85 -1.65,1.16 -3.07,3.19 -5.28,3.12 -1.74,-0.95 -2.71,-2.77 -3.74,-4.37 -0.6,-1.05 -1.18,-2.1 -1.76,-3.15 -5.04,2.4 -8.87,6.7 -13.8,9.16 -3.1,-1.46 -3.68,-5.47 -5.55,-8.1 -3.34,2.46 -6.43,5.51 -10.43,6.89 -2.42,0.97 -4.55,-3.03 -2.31,-4.43 3.22,-2.48 6.73,-4.55 9.88,-7.14 1.65,-1.09 3.61,-3.22 5.74,-1.96 1.68,2.2 2.64,4.84 3.89,7.28 4.54,-2.99 8.82,-6.53 13.75,-8.84 3.08,0.39 3.44,4.49 4.86,6.72 0.09,0.25 0.28,0.75 0.37,1 4.43,-3.06 8.76,-6.26 13.13,-9.4 z"
       id="path32" />
    <path
       fill="#fcaecb"
       opacity="1"
       d="m 569.6,312.77 c 2.48,-2.25 4.02,-6.14 7.4,-7 2.98,1.42 4.57,4.58 6.62,7.04 3.17,-2.26 6.04,-4.97 9.5,-6.8 2.37,-0.38 4.11,2.81 2.31,4.52 -2.66,2.68 -5.98,4.59 -8.71,7.19 -1.28,0.9 -2.53,2.67 -4.29,1.92 -2.3,-1.76 -3.82,-4.3 -5.59,-6.53 -2.35,2.35 -4.41,4.99 -6.98,7.11 -3.75,1.46 -4.63,-3.6 -6.14,-5.86 -2.47,2.27 -4.75,4.73 -7.01,7.19 -3.72,2.6 -5.82,-1.73 -7.21,-4.49 -2.39,1.93 -4.66,4.09 -7.46,5.41 -1.97,0.07 -3.76,-2.24 -2.53,-4 2.23,-2.67 5.11,-4.71 7.7,-7.02 1.48,-1.07 3.26,-3.11 5.25,-1.87 1.32,1.53 1.53,3.68 2.26,5.53 2.96,-2.49 5.54,-5.79 9.31,-7.05 2.98,-0.67 4.05,2.9 5.57,4.71 z"
       id="path34" />
  </g>
</svg>
